<svg width="24" height="24" viewBox="0 0 24 24" fill="none" xmlns="http://www.w3.org/2000/svg"><path d="M22.697 16.65c-.84-.02-1.897-.069-2.565-.186-.723-.128-1.592-.376-2.204-.567a1.356 1.356 0 00-1.359.338l-2.956 2.938a20.503 20.503 0 01-5.064-3.722 20.504 20.504 0 01-3.722-5.064l2.938-2.958c.355-.356.487-.878.338-1.358-.19-.611-.439-1.48-.566-2.203-.118-.668-.166-1.725-.188-2.565A1.333 1.333 0 006.013 0h-4.68C.75 0 0 .437 0 1.333 0 7.385 2.453 13.165 6.621 17.38 10.835 21.547 16.615 24 22.667 24c.896 0 1.333-.75 1.333-1.333v-4.68c0-.727-.576-1.319-1.303-1.336z" fill="#EE3D48"/></svg>