<svg width="63" height="60" viewBox="0 0 63 60" fill="none" xmlns="http://www.w3.org/2000/svg"><path fill-rule="evenodd" clip-rule="evenodd" d="M41.892 17.382h-1.956v-1.995c0-1.297-1.04-2.374-2.293-2.374H25.656c-1.253 0-2.293 1.077-2.293 2.374v1.995h-2.14c-3.272 0-5.902 2.724-5.902 6.111v15.958c0 3.387 2.63 6.11 5.901 6.11h20.67c3.273 0 5.903-2.723 5.903-6.11V23.493c0-3.356-2.662-6.111-5.903-6.111zM62.196 29.13l-12.812-6.238c0 .19.03.38.03.57v.76l11.254 5.477c.702.348.977 1.203.672 1.9l-6.452 14.248c-.337.729-1.162 1.013-1.834.696l-5.107-2.47c-1.376 1.9-3.547 3.136-6.023 3.136h-2.966l12.352 5.983c.704.349 1.53.032 1.835-.695l9.754-21.5c.275-.665-.03-1.52-.703-1.867zM21.222 47.24c-2.477 0-4.678-1.266-6.055-3.198L9.97 46.576a1.333 1.333 0 01-1.834-.697L1.684 31.63c-.337-.729-.032-1.584.672-1.9l11.374-5.54v-.698c0-.222 0-.444.032-.664l-12.966 6.3c-.703.348-.978 1.203-.673 1.9l9.755 21.53c.336.729 1.162 1.013 1.835.697l12.353-5.985h-2.844v-.031zm20.793-28.148a4.151 4.151 0 012.569 1.014l-4.037 4.178a11.082 11.082 0 00-1.712-1.899l3.18-3.293zm-10.61 2.153c5.442 0 9.846 4.56 9.846 10.195 0 5.637-4.404 10.196-9.846 10.196-5.443 0-9.846-4.59-9.846-10.227 0-5.637 4.403-10.164 9.846-10.164zm-2.02-1.52l.612-.633h3.548l-.55.57c-.52-.063-1.04-.127-1.59-.127-.703 0-1.376.064-2.02.19zm10.184-.633l-2.14 2.216c-.766-.474-1.56-.886-2.417-1.17l1.01-1.046h3.547zm-14.586-3.705c0-.38.306-.664.642-.664h11.986c.367 0 .643.317.643.664v.95H24.983v-.95zm-.977 3.705h3.515l-2.14 2.216a11.74 11.74 0 00-3.792 3.927l-.795.823h-3.547l6.759-6.966zm-7.033 4.401c0-2.438 1.926-4.401 4.25-4.401h.305l-4.555 4.718v-.317zm0 15.958v-.633l2.384-2.47h1.59c.215.443.429.887.672 1.33l-4.005 4.116a4.71 4.71 0 01-.641-2.343zm4.25 4.402a4.141 4.141 0 01-2.386-.76l3.822-3.958a11 11 0 001.835 1.773l-2.843 2.945h-.429zm6.42 0h-3.547l1.896-1.964c.796.443 1.652.791 2.54 1.013l-.888.95zm6.024 0h-3.546l.58-.602c.245 0 .459.031.704.031 1.131 0 2.232-.19 3.272-.506l-1.01 1.077zm8.47 0l3.976-4.117c-.123 2.216-1.835 3.99-3.976 4.117zm4.006-6.714l-6.482 6.714h-3.547l7.277-7.536h2.752v.822zm0-12.442l-1.315 1.361h-3.21c-.03-.064-.062-.159-.123-.222l4.19-4.306a4.36 4.36 0 01.458 1.995v1.172zm-14.738 15.26c4.556 0 8.256-3.83 8.256-8.548s-3.7-8.549-8.256-8.549c-4.557 0-8.257 3.831-8.257 8.549 0 4.717 3.7 8.549 8.257 8.549zm0-15.07c3.486 0 6.298 2.913 6.298 6.522 0 3.61-2.812 6.523-6.298 6.523s-6.299-2.914-6.299-6.523c-.031-3.578 2.813-6.523 6.3-6.523zm-5.198 6.522c0-2.976 2.324-5.382 5.198-5.382 1.131 0 2.17.378 3.027 1.013l-7.247 7.503c-.612-.855-.978-1.962-.978-3.134z" fill="#131313"/><path fill-rule="evenodd" clip-rule="evenodd" d="M42.993 51.071c-3.394 2.09-7.368 3.325-11.619 3.325-4.22 0-8.133-1.203-11.527-3.26l-5.658 2.754C18.93 57.72 24.892 60 31.374 60c6.514 0 12.506-2.31 17.245-6.142l-5.626-2.787zM13.661 8.508a29.203 29.203 0 00-9.838 17.329l4.526-4.94 1.866 1.805c1.498-4.117 4.066-7.695 7.4-10.322l-1.07-1.098a26.188 26.188 0 0114.89-4.633 25.99 25.99 0 0114.85 4.635l-1.06 1.096a23.58 23.58 0 017.34 10.195l2.263-1.456 4.157 4.56c-1.242-6.844-4.799-12.877-9.807-17.145l1.826-1.916C45.5 2.47 38.744 0 31.405 0s-14.097 2.438-19.6 6.585l1.856 1.923z" fill="#EE3D48"/></svg>