<svg width="83" height="44" viewBox="0 0 83 44" fill="none" xmlns="http://www.w3.org/2000/svg"><ellipse cx="3.154" cy="3.134" rx="3.154" ry="3.134" fill="#EE3D48"/><ellipse cx="3.154" cy="12.534" rx="3.154" ry="3.134" fill="#EE3D48"/><ellipse cx="3.154" cy="21.934" rx="3.154" ry="3.134" fill="#EE3D48"/><ellipse cx="3.154" cy="31.335" rx="3.154" ry="3.134" fill="#EE3D48"/><ellipse cx="3.154" cy="40.736" rx="3.154" ry="3.134" fill="#EE3D48"/><ellipse cx="12.616" cy="3.134" rx="3.154" ry="3.134" fill="#EE3D48"/><ellipse cx="12.616" cy="12.534" rx="3.154" ry="3.134" fill="#EE3D48"/><ellipse cx="12.616" cy="21.934" rx="3.154" ry="3.134" fill="#EE3D48"/><ellipse cx="12.616" cy="31.335" rx="3.154" ry="3.134" fill="#EE3D48"/><ellipse cx="12.616" cy="40.736" rx="3.154" ry="3.134" fill="#EE3D48"/><ellipse cx="22.078" cy="3.134" rx="3.154" ry="3.134" fill="#EE3D48"/><ellipse cx="22.078" cy="12.534" rx="3.154" ry="3.134" fill="#EE3D48"/><ellipse cx="22.078" cy="21.934" rx="3.154" ry="3.134" fill="#EE3D48"/><ellipse cx="22.078" cy="31.335" rx="3.154" ry="3.134" fill="#EE3D48"/><ellipse cx="22.078" cy="40.736" rx="3.154" ry="3.134" fill="#EE3D48"/><ellipse cx="31.54" cy="3.134" rx="3.154" ry="3.134" fill="#EE3D48"/><ellipse cx="31.54" cy="12.534" rx="3.154" ry="3.134" fill="#EE3D48"/><ellipse cx="31.54" cy="21.934" rx="3.154" ry="3.134" fill="#EE3D48"/><ellipse cx="31.54" cy="31.335" rx="3.154" ry="3.134" fill="#EE3D48"/><ellipse cx="31.54" cy="40.736" rx="3.154" ry="3.134" fill="#EE3D48"/><ellipse cx="41.002" cy="3.134" rx="3.154" ry="3.134" fill="#EE3D48"/><ellipse cx="50.464" cy="3.134" rx="3.154" ry="3.134" fill="#EE3D48"/><ellipse cx="59.926" cy="3.134" rx="3.154" ry="3.134" fill="#EE3D48"/><ellipse cx="69.388" cy="3.134" rx="3.154" ry="3.134" fill="#EE3D48"/><ellipse cx="78.85" cy="3.134" rx="3.154" ry="3.134" fill="#EE3D48"/><ellipse cx="41.002" cy="12.534" rx="3.154" ry="3.134" fill="#EE3D48"/><ellipse cx="50.464" cy="12.534" rx="3.154" ry="3.134" fill="#EE3D48"/><ellipse cx="59.926" cy="12.534" rx="3.154" ry="3.134" fill="#EE3D48"/><ellipse cx="69.388" cy="12.534" rx="3.154" ry="3.134" fill="#EE3D48"/><ellipse cx="78.85" cy="12.534" rx="3.154" ry="3.134" fill="#EE3D48"/><ellipse cx="41.002" cy="21.934" rx="3.154" ry="3.134" fill="#EE3D48"/><ellipse cx="50.464" cy="21.934" rx="3.154" ry="3.134" fill="#EE3D48"/><ellipse cx="59.926" cy="21.934" rx="3.154" ry="3.134" fill="#EE3D48"/><ellipse cx="69.388" cy="21.934" rx="3.154" ry="3.134" fill="#EE3D48"/><ellipse cx="78.85" cy="21.934" rx="3.154" ry="3.134" fill="#EE3D48"/><ellipse cx="41.002" cy="31.335" rx="3.154" ry="3.134" fill="#EE3D48"/><ellipse cx="50.464" cy="31.335" rx="3.154" ry="3.134" fill="#EE3D48"/><ellipse cx="59.926" cy="31.335" rx="3.154" ry="3.134" fill="#EE3D48"/><ellipse cx="69.388" cy="31.335" rx="3.154" ry="3.134" fill="#EE3D48"/><ellipse cx="78.85" cy="31.335" rx="3.154" ry="3.134" fill="#EE3D48"/><ellipse cx="41.002" cy="40.736" rx="3.154" ry="3.134" fill="#EE3D48"/><ellipse cx="50.464" cy="40.736" rx="3.154" ry="3.134" fill="#EE3D48"/><ellipse cx="59.926" cy="40.736" rx="3.154" ry="3.134" fill="#EE3D48"/><ellipse cx="69.388" cy="40.736" rx="3.154" ry="3.134" fill="#EE3D48"/><ellipse cx="78.85" cy="40.736" rx="3.154" ry="3.134" fill="#EE3D48"/></svg>